<svg xmlns="http://www.w3.org/2000/svg" viewBox="0 0 335.33 20.81"><defs><style>.cls-1{fill:#fff;}</style></defs><g id="Layer_2" data-name="Layer 2"><g id="Layer_1-2" data-name="Layer 1"><path class="cls-1" d="M0,20.41V.4H8.23A7.58,7.58,0,0,1,13,1.69a4.25,4.25,0,0,1,1.67,3.6,4.33,4.33,0,0,1-.78,2.56,5.44,5.44,0,0,1-2,1.7q3.6,1.42,3.6,4.85a5.32,5.32,0,0,1-2,4.38,7.88,7.88,0,0,1-5.05,1.63ZM3.77,3.72V8.17H8a3.92,3.92,0,0,0,2.3-.54A2,2,0,0,0,11,5.94a2,2,0,0,0-.72-1.68A3.92,3.92,0,0,0,8,3.72Zm0,7.77V17H8.15q3.54,0,3.54-2.77T8.15,11.49Z"/><path class="cls-1" d="M21.32,20.41V.4h3.77v20Z"/><path class="cls-1" d="M47.79,20.41,47,17.66a6.73,6.73,0,0,1-6.09,3.15,9.43,9.43,0,0,1-7.07-2.95A10.28,10.28,0,0,1,31,10.4a10,10,0,0,1,3-7.46A10.14,10.14,0,0,1,41.36,0a10.4,10.4,0,0,1,5.27,1.33A8.49,8.49,0,0,1,50.1,4.89L47.27,6.94a6.29,6.29,0,0,0-6-3.62,6.15,6.15,0,0,0-4.6,1.94,7.05,7.05,0,0,0-1.89,5.14,7.17,7.17,0,0,0,1.76,5A5.74,5.74,0,0,0,41,17.32a5.35,5.35,0,0,0,3.8-1.27A5.44,5.44,0,0,0,46.5,12.8H40V9.72H50.27V20.41Z"/><path class="cls-1" d="M74.62,13.32l2.95,2.11a13.35,13.35,0,0,1-3.89,4.13,9.63,9.63,0,0,1-5.15,1.25,10,10,0,0,1-7.34-2.89A10.14,10.14,0,0,1,58.3,10.4a10.07,10.07,0,0,1,3-7.5A10.9,10.9,0,0,1,74.08,1.44a8.36,8.36,0,0,1,3.37,3.79l-3.06,2.2a6.35,6.35,0,0,0-10.4-2,6.85,6.85,0,0,0-1.86,5,6.92,6.92,0,0,0,1.86,5,6.09,6.09,0,0,0,4.57,1.94Q72.47,17.32,74.62,13.32Z"/><path class="cls-1" d="M83.25,20.41V.4H87V8.46h8.74V.4h3.77v20H95.77V12H87v8.46Z"/><path class="cls-1" d="M124,20.29,104,12.2V8.6L124,.51v4l-5.23,2v7.72l5.23,2Zm-13.41-9.14,4.8,1.82V7.83l-4.8,1.83c-.65.25-1.37.5-2.17.74Z"/><path class="cls-1" d="M128.52,20.41V.4h3.83l8.35,12.72a13.91,13.91,0,0,1,.86,1.57V.4h3.65v20h-3.83L133,7.6A13.91,13.91,0,0,1,132.18,6V20.41Z"/><path class="cls-1" d="M167.91,20.41l-.8-2.75A6.73,6.73,0,0,1,161,20.81a9.47,9.47,0,0,1-7.08-2.95,10.32,10.32,0,0,1-2.84-7.46,10,10,0,0,1,3-7.46A10.14,10.14,0,0,1,161.48,0a10.4,10.4,0,0,1,5.27,1.33,8.49,8.49,0,0,1,3.47,3.56l-2.83,2.05a6.29,6.29,0,0,0-6-3.62,6.13,6.13,0,0,0-4.6,1.94,7.05,7.05,0,0,0-1.89,5.14,7.17,7.17,0,0,0,1.76,5,5.74,5.74,0,0,0,4.44,1.94,5.35,5.35,0,0,0,3.8-1.27,5.44,5.44,0,0,0,1.69-3.25h-6.46V9.72h10.23V20.41Z"/><path class="cls-1" d="M176.65,20.41V.4h13.81V3.77h-10v4.6h9.23v3.38h-9.23V17h10.12v3.38Z"/><path class="cls-1" d="M205.92,20.41l8-20h1.89l8,20H222l-2.46-6.21h-9.32l-2.45,6.21Zm13-7.63-3.69-9.41-.43-1.2a11.45,11.45,0,0,1-.43,1.2l-3.68,9.41Z"/><path class="cls-1" d="M243.84,20.41l-.66-3.83a7,7,0,0,1-6.6,4.23,8.61,8.61,0,0,1-6.79-3,10.84,10.84,0,0,1-2.61-7.43A10.4,10.4,0,0,1,230,3a9.25,9.25,0,0,1,11.56-1.74,9.11,9.11,0,0,1,3.32,3.6l-1.32.94a7.35,7.35,0,0,0-6.83-4.34,7.21,7.21,0,0,0-5.51,2.57,9.08,9.08,0,0,0-2.35,6.34A9.51,9.51,0,0,0,231,16.8a7,7,0,0,0,5.57,2.52,5.91,5.91,0,0,0,4.62-2,8.52,8.52,0,0,0,2.07-5.08H236V10.72h9v9.69Z"/><path class="cls-1" d="M252,20.41V.4h20.08V1.89H253.76V9.32h18.36V10.8H253.76v8.12h18.36v1.49Z"/><path class="cls-1" d="M277.94,20.41V.4h1.83l10.17,16.06A14.87,14.87,0,0,1,290.8,18V.4h1.66v20h-1.83L280.45,4.34a13.32,13.32,0,0,1-.85-1.57V20.41Z"/><path class="cls-1" d="M315.55,14.83l1.26.89a11.14,11.14,0,0,1-3.33,3.77,8.61,8.61,0,0,1-5,1.32,8.71,8.71,0,0,1-6.76-3,10.69,10.69,0,0,1-2.7-7.41A10.36,10.36,0,0,1,301.92,3a9.22,9.22,0,0,1,11.66-1.68,8.7,8.7,0,0,1,3.26,3.73L315.55,6a9.22,9.22,0,0,0-3-3.49,7.34,7.34,0,0,0-3.92-1,7.19,7.19,0,0,0-5.54,2.58,9.19,9.19,0,0,0-2.32,6.33A9.44,9.44,0,0,0,303,16.78a7.12,7.12,0,0,0,5.64,2.54,7.2,7.2,0,0,0,4.06-1.09A8.85,8.85,0,0,0,315.55,14.83Z"/><path class="cls-1" d="M327.07,20.41V12.06L320.52.4h1.83l4.95,9.09a9.21,9.21,0,0,1,.62,1.31l.63-1.31L333.5.4h1.83l-6.55,11.66v8.35Z"/></g></g></svg>