<svg xmlns="http://www.w3.org/2000/svg" viewBox="0 0 928.51 54.98"><defs><style>.cls-1{fill:#fff;}</style></defs><g id="Layer_2" data-name="Layer 2"><g id="Layer_1-2" data-name="Layer 1"><path class="cls-1" d="M56.68,31.2c-.56,1.35-1.09,2.79-1.61,4.33s-1,3-1.46,4.54q-.84-2.1-1.78-4.33c-.63-1.49-1.22-2.89-1.78-4.19l-8.73-20.1H34.06l-9,20.24C24.45,33,23.84,34.46,23.21,36S22,38.9,21.43,40.34c-.42-1.44-.87-2.9-1.36-4.39s-1-2.91-1.43-4.26L8.31,3H0L18,51.86H23.8l13.61-31.2,13.48,31.2h5.23L76.23,3h-8.1Z"/><path class="cls-1" d="M142,9.56a29.3,29.3,0,0,0-9.35-5.34,37.74,37.74,0,0,0-23.77,0A28.82,28.82,0,0,0,99.5,9.56a24.2,24.2,0,0,0-6.1,8,22.73,22.73,0,0,0-2.17,9.88,22.7,22.7,0,0,0,2.17,9.88,24.1,24.1,0,0,0,6.1,8,28.82,28.82,0,0,0,9.36,5.34,35.32,35.32,0,0,0,11.9,1.92,35.1,35.1,0,0,0,11.87-1.92A29.3,29.3,0,0,0,142,45.3a24,24,0,0,0,6.14-8,22.84,22.84,0,0,0,2.17-9.88,22.88,22.88,0,0,0-2.17-9.88A24.06,24.06,0,0,0,142,9.56Zm-2.17,26.95a19,19,0,0,1-7.71,6.38,28.82,28.82,0,0,1-22.75,0,18.91,18.91,0,0,1-7.68-6.35,15.68,15.68,0,0,1-2.76-9.11,15.7,15.7,0,0,1,2.76-9.11A19,19,0,0,1,109.35,12a28.82,28.82,0,0,1,22.75,0,19.21,19.21,0,0,1,7.71,6.35,15.52,15.52,0,0,1,2.8,9.11A15.58,15.58,0,0,1,139.81,36.51Z"/><path class="cls-1" d="M210.73,29.63a16.46,16.46,0,0,0,4.09-5.17,14,14,0,0,0,1.5-6.45,13.86,13.86,0,0,0-2.17-7.65A15.87,15.87,0,0,0,208.4,5a16.07,16.07,0,0,0-7.93-2H171.92V51.86h7.54v-18h16.76l13.54,18,9.42.07L204.87,33A17.78,17.78,0,0,0,210.73,29.63Zm-12.35-3H179.46V10.26h18.92a11.54,11.54,0,0,1,5,1.05,9.69,9.69,0,0,1,3.59,2.79A6.18,6.18,0,0,1,208.29,18a7.31,7.31,0,0,1-1.36,4.26,10.13,10.13,0,0,1-3.59,3.14A10.44,10.44,0,0,1,198.38,26.59Z"/><polygon class="cls-1" points="283.89 3 263.44 18.98 250.03 29.46 250.03 3 242.49 3 242.49 51.86 250.03 51.86 250.03 38.04 263.99 27.15 284.03 51.86 294.08 51.86 269.93 22.55 295.06 3 283.89 3"/><polygon class="cls-1" points="315.75 53.36 326.29 53.36 326.29 33.26 355.68 33.26 355.68 23 326.29 23 326.29 11.76 358.82 11.76 358.82 1.5 315.75 1.5 315.75 53.36"/><path class="cls-1" d="M419.58,30.77A18.08,18.08,0,0,0,424,25.14,15.68,15.68,0,0,0,425.69,18a15.43,15.43,0,0,0-2.4-8.45A17.33,17.33,0,0,0,417,3.68a17.64,17.64,0,0,0-8.65-2.18H378.3V53.36h10.53v-18h14.51l13.54,18,13.2.09-15-19.84A19.08,19.08,0,0,0,419.58,30.77Zm-30.75-19h17.42a10.09,10.09,0,0,1,4.32.9A8.3,8.3,0,0,1,413.62,15a4.71,4.71,0,0,1,1,3,5.76,5.76,0,0,1-1.09,3.4,8.49,8.49,0,0,1-3.07,2.67,8.83,8.83,0,0,1-4.25,1H388.83Z"/><path class="cls-1" d="M497.62,8.42a31.16,31.16,0,0,0-9.82-5.61,39.19,39.19,0,0,0-24.78,0,30.5,30.5,0,0,0-9.83,5.62,25.71,25.71,0,0,0-6.48,8.48,24.3,24.3,0,0,0-2.31,10.52A24.26,24.26,0,0,0,446.71,38a25.61,25.61,0,0,0,6.48,8.48A30,30,0,0,0,463,52.05a36.88,36.88,0,0,0,12.41,2,36.56,36.56,0,0,0,12.37-2,30.67,30.67,0,0,0,9.82-5.61A25.66,25.66,0,0,0,504.15,38a24.43,24.43,0,0,0,2.3-10.52,24.3,24.3,0,0,0-2.31-10.52A25.6,25.6,0,0,0,497.62,8.42Zm-1.85,19a14.23,14.23,0,0,1-2.52,8.22,17.77,17.77,0,0,1-7.12,5.89,27.41,27.41,0,0,1-21.47,0,17.56,17.56,0,0,1-7.09-5.85,14.34,14.34,0,0,1-2.49-8.26,14.1,14.1,0,0,1,2.49-8.26,17.56,17.56,0,0,1,7.09-5.85,27.38,27.38,0,0,1,21.46,0,17.76,17.76,0,0,1,7.13,5.86A14,14,0,0,1,495.77,27.43Z"/><path class="cls-1" d="M554.93,26.51l-20.22-25h-9.62V53.36h10.54V31.13c0-3-.06-5.94-.18-8.68,0-1.13-.11-2.26-.18-3.39l16.65,20.27h6l16.65-20.27q-.11,1.7-.18,3.39c-.12,2.72-.18,5.64-.18,8.68V53.36h10.54V1.5h-9.61Z"/><polygon class="cls-1" points="647.35 21.15 619.22 21.15 619.22 0 605.68 0 605.68 54.86 619.22 54.86 619.22 34.41 647.35 34.41 647.35 54.86 660.89 54.86 660.89 0 647.35 0 647.35 21.15"/><polygon class="cls-1" points="680.3 54.86 726.85 54.86 726.85 41.6 693.84 41.6 693.84 33.43 723.01 33.43 723.01 20.17 693.84 20.17 693.84 13.26 726.85 13.26 726.85 0 680.3 0 680.3 54.86"/><path class="cls-1" d="M763.44,0l-26.8,54.86h14.63l5.59-11.45h25.22l5.58,11.45h15L776,0ZM775.6,30.16H763.34l6.12-12.63c.32.65.65,1.31,1,2Z"/><path class="cls-1" d="M857.72,31.91a19.69,19.69,0,0,0,4.82-6.09A17.13,17.13,0,0,0,864.36,18a16.9,16.9,0,0,0-2.63-9.26,18.92,18.92,0,0,0-6.84-6.39A19.2,19.2,0,0,0,845.52,0H814V54.86h13.54v-18h12.25l13.54,18,17,.13L854.57,34.13A20.32,20.32,0,0,0,857.72,31.91ZM827.51,13.26h15.91a8.57,8.57,0,0,1,3.69.76,6.73,6.73,0,0,1,2.5,1.92,3.22,3.22,0,0,1,.73,2.07,4.28,4.28,0,0,1-.83,2.54A6.93,6.93,0,0,1,847,22.76a7.41,7.41,0,0,1-3.55.83H827.51Z"/><polygon class="cls-1" points="877.42 0 877.42 13.26 895.99 13.26 895.99 54.86 909.53 54.86 909.53 13.26 928.51 13.26 928.51 0 877.42 0"/></g></g></svg>