<svg xmlns="http://www.w3.org/2000/svg" viewBox="0 0 336.72 17.09"><defs><style>.cls-1{fill:#fff;}</style></defs><g id="Layer_2" data-name="Layer 2"><g id="Layer_1-2" data-name="Layer 1"><path class="cls-1" d="M11.36,1.55A5,5,0,0,0,8.89.93H0V16.15H2.35V10.54H8.46a5.5,5.5,0,0,0,2.67-.66,5.35,5.35,0,0,0,2-1.78,4.46,4.46,0,0,0,.74-2.49,4.29,4.29,0,0,0-.67-2.38A4.85,4.85,0,0,0,11.36,1.55Zm-.45,5.38a3.12,3.12,0,0,1-1.12,1,3.23,3.23,0,0,1-1.55.37H2.35V3.19H8.24a3.59,3.59,0,0,1,1.55.33,3.16,3.16,0,0,1,1.12.87,1.94,1.94,0,0,1,.42,1.22A2.25,2.25,0,0,1,10.91,6.93Z"/><polygon class="cls-1" points="18.94 3.19 24.73 3.19 24.73 16.16 27.07 16.16 27.07 3.19 32.99 3.19 32.99 0.93 18.94 0.93 18.94 3.19"/><path class="cls-1" d="M207.93,2.65A8.47,8.47,0,0,0,205,.83a11.28,11.28,0,0,0-4-.64h-8.44V16.9H201a10.63,10.63,0,0,0,5.08-1.12,7.81,7.81,0,0,0,3.15-3.06,8.38,8.38,0,0,0,1.06-4.18,8.77,8.77,0,0,0-.59-3.19A7.64,7.64,0,0,0,207.93,2.65Zm-1.61,5.89a5.09,5.09,0,0,1-.55,2.35,3.84,3.84,0,0,1-1.68,1.63,6.83,6.83,0,0,1-3.18.63h-4.49V3.94h4.49a6.65,6.65,0,0,1,3.17.65,4,4,0,0,1,1.69,1.65A5,5,0,0,1,206.32,8.54Z"/><path class="cls-1" d="M220.89.19,212.72,16.9h4.14l1.74-3.57h8.1l1.73,3.57h4.25L224.56.19Zm4,9.39h-4.42L222.65,5l.47,1Z"/><path class="cls-1" d="M250,9.8A6,6,0,0,0,251.48,8,5.2,5.2,0,0,0,252,5.61a5.07,5.07,0,0,0-.79-2.79A5.67,5.67,0,0,0,249.17.9a5.8,5.8,0,0,0-2.83-.71H236.7V16.9h3.84V11.29h4.1l4.22,5.61,4.81,0-4.79-6.36A6.33,6.33,0,0,0,250,9.8Zm-2-4.19a1.51,1.51,0,0,1-.29.9,2.39,2.39,0,0,1-.86.74,2.49,2.49,0,0,1-1.19.29h-5.15V3.94h5.15a2.74,2.74,0,0,1,1.23.26,2.13,2.13,0,0,1,.84.65A1.13,1.13,0,0,1,248,5.61Z"/><rect class="cls-1" x="259.3" y="0.19" width="3.73" height="16.71"/><polygon class="cls-1" points="282.86 6.59 274.09 6.59 274.09 0 269.87 0 269.87 17.09 274.09 17.09 274.09 10.71 282.86 10.71 282.86 17.09 287.07 17.09 287.07 0 282.86 0 282.86 6.59"/><path class="cls-1" d="M299,0,290.6,17.09h4.56l1.74-3.57h7.86l1.74,3.57h4.65L302.86,0Zm3.79,9.39h-3.83l1.91-3.94.31.63Z"/><polygon class="cls-1" points="311.82 4.13 317.61 4.13 317.61 17.09 321.82 17.09 321.82 4.13 327.73 4.13 327.73 0 311.82 0 311.82 4.13"/><rect class="cls-1" x="332.61" width="4.1" height="17.09"/><path class="cls-1" d="M61.31,8.28a6,6,0,0,0-.82-.47,3.6,3.6,0,0,0,1.12-1,3.39,3.39,0,0,0,.67-2.06A3.58,3.58,0,0,0,60.66,1.6a8.18,8.18,0,0,0-4.53-1H47.45v16h9.24a10.87,10.87,0,0,0,2.2-.22A6.65,6.65,0,0,0,61,15.57a4.37,4.37,0,0,0,1.55-1.5,4.55,4.55,0,0,0,.59-2.39,3.9,3.9,0,0,0-1.78-3.4ZM50.54,9.76h6.13a6.74,6.74,0,0,1,1.6.2,3,3,0,0,1,1.25.61A1.29,1.29,0,0,1,60,11.63,1.44,1.44,0,0,1,59.14,13a4.83,4.83,0,0,1-2.36.51H50.54Zm8.28-3.83a2.13,2.13,0,0,1-.92.57,4.82,4.82,0,0,1-1.34.24h-6V3.57H56.3a4.87,4.87,0,0,1,2.11.4,1.13,1.13,0,0,1,.71,1.14A1.17,1.17,0,0,1,58.82,5.93Z"/><polygon class="cls-1" points="69.08 16.53 82.47 16.53 82.47 13.52 72.18 13.52 72.18 9.85 81.27 9.85 81.27 6.84 72.18 6.84 72.18 3.57 82.47 3.57 82.47 0.56 69.08 0.56 69.08 16.53"/><polygon class="cls-1" points="102.3 0.56 92.25 8.41 92.25 0.56 89.16 0.56 89.16 16.53 92.25 16.53 92.25 12.03 96.17 8.98 102.29 16.53 106.39 16.53 98.61 7.08 106.99 0.56 102.3 0.56"/><polygon class="cls-1" points="112.45 16.53 125.83 16.53 125.83 13.52 115.54 13.52 115.54 9.85 124.63 9.85 124.63 6.84 115.54 6.84 115.54 3.57 125.83 3.57 125.83 0.56 112.45 0.56 112.45 16.53"/><path class="cls-1" d="M145.22,9.51a5.43,5.43,0,0,0,1.37-1.72,4.88,4.88,0,0,0,.5-2.18A4.68,4.68,0,0,0,146.36,3a5.22,5.22,0,0,0-1.93-1.8,5.29,5.29,0,0,0-2.64-.67h-9.27v16h3.09V10.92h4.66l4.22,5.61,3.88,0-4.62-6.12A5.6,5.6,0,0,0,145.22,9.51Zm-1.73-2.79a2.67,2.67,0,0,1-1,.86,2.86,2.86,0,0,1-1.37.33h-5.52V3.57h5.52a3.15,3.15,0,0,1,1.39.29,2.61,2.61,0,0,1,1,.76,1.52,1.52,0,0,1,.35,1A1.89,1.89,0,0,1,143.49,6.72Z"/><path class="cls-1" d="M177,.56l-7.8,16h3.31L174.25,13h8.55l1.74,3.57H188L180.2.56Zm1.52,3.59c.07.17.15.33.23.48l.58,1.21,2,4.11h-5.61l2.55-5.27C178.36,4.51,178.44,4.34,178.52,4.15Z"/><path class="cls-1" d="M159,3.63h3.79V10a4.2,4.2,0,0,1-.46,1.94A3.54,3.54,0,0,1,161,13.31a3.78,3.78,0,0,1-2,.51,3.67,3.67,0,0,1-1.76-.37,4.8,4.8,0,0,1-1.27-1c-.38-.43-.76-.89-1.11-1.36l-.27-.35-2.06,2.17.14.24a9.75,9.75,0,0,0,.64.91,7,7,0,0,0,1.22,1.22,6.83,6.83,0,0,0,1.89,1.05,7.31,7.31,0,0,0,2.58.42,7.4,7.4,0,0,0,2.91-.54,6.25,6.25,0,0,0,2.16-1.46,6.39,6.39,0,0,0,1.33-2.11,6.65,6.65,0,0,0,.45-2.41V.56H159Z"/></g></g></svg>